<svg xmlns="http://www.w3.org/2000/svg" width="44" height="44"><defs><clipPath id="a"><path d="M0 0h44v44H0z"/></clipPath></defs><g stroke="currentColor" stroke-linecap="round" stroke-linejoin="round" stroke-width="1.5" clip-path="url(#a)"><path d="M22 34a12 12 0 1 1 12-12 12 12 0 0 1-12 12Z" fill="none"/><path d="M27.4 25a6.958 6.958 0 0 1-5.4 2.4 6.958 6.958 0 0 1-5.4-2.4" fill="none"/><path d="M26.2 18.4a.6.6 0 1 1 .6-.6.6.6 0 0 1-.6.6Zm-8.4 0a.6.6 0 1 1 .6-.6.6.6 0 0 1-.6.6Z" fill="currentColor"/></g></svg>