<svg xmlns="http://www.w3.org/2000/svg" width="44" height="44"><defs><clipPath id="a"><path d="M0 0h44v44H0z"/></clipPath></defs><g fill="none" stroke="currentColor" stroke-width="1.5" clip-path="url(#a)"><path d="M30.966 10.037a4.151 4.151 0 0 0-1.191.182l-.056.019a25.916 25.916 0 0 1-8.018 1.261 21.375 21.375 0 0 1-7.419-1.262A3.738 3.738 0 0 0 12.993 10 2.921 2.921 0 0 0 10 12.979v9.73C10 28.829 15.495 34 22 34s12-5.171 12-11.291v-9.73a2.891 2.891 0 0 0-3.034-2.942Z" stroke-miterlimit="10"/><path d="M16.545 26.899a8.237 8.237 0 0 0 5.45 2.175 8.237 8.237 0 0 0 5.455-2.175M18.728 20.146a2.977 2.977 0 0 0-2.182-1.092 2.977 2.977 0 0 0-2.182 1.092M25.045 20.146a2.977 2.977 0 0 1 2.182-1.092 2.977 2.977 0 0 1 2.177 1.092" stroke-linecap="round" stroke-linejoin="round"/></g></svg>