<svg xmlns="http://www.w3.org/2000/svg" width="44" height="44"><defs><clipPath id="a"><path d="M0 0h44v44H0z"/></clipPath></defs><g clip-path="url(#a)"><g transform="translate(-700.136 -62.438)" fill="none" stroke="currentColor" stroke-width="1.5"><path d="M717.319 79.555a5.789 5.789 0 0 1-1.987-1.061c-1.59-1.313-2.39-3.417-2.39-6.253a1.24 1.24 0 1 1 2.479 0c0 2.048.5 3.5 1.474 4.322a4.716 4.716 0 0 0 3.227.777l10.32-.948a1.244 1.244 0 0 1 .224 2.477l-8.963.818c.142 3.156 3.776 5 5.6 5 0 7.354-9.991 8.184-9.991 8.184Z" stroke-linecap="round" stroke-linejoin="round" stroke-miterlimit="10"/><path d="M719.535 96.669a1.324 1.324 0 0 0 1.313 1.185 1.347 1.347 0 0 0 .143-.008 1.325 1.325 0 0 0 1.173-1.461l-.492-4.581a17.051 17.051 0 0 1-2.576.774ZM731.878 86.488l-4.62-.925a6.5 6.5 0 0 1-.832 2.539l4.935.988a1.326 1.326 0 0 0 .517-2.6Z" stroke-miterlimit="10"/><circle cx="2.232" cy="2.232" r="2.232" transform="translate(718.136 70.438)" stroke-linecap="round" stroke-linejoin="round"/></g></g></svg>