<svg xmlns="http://www.w3.org/2000/svg" width="44" height="44"><defs><clipPath id="a"><path d="M0 0h44v44H0z"/></clipPath></defs><g fill="none" stroke="currentColor" stroke-linecap="round" stroke-linejoin="round" stroke-width="1.5" clip-path="url(#a)"><path d="M16.428 24.229a2.229 2.229 0 1 0-2.229-2.23 2.229 2.229 0 0 0 2.229 2.23Zm11.145 0a2.229 2.229 0 1 0-2.229-2.23 2.229 2.229 0 0 0 2.229 2.23Zm-5.574-5.572a2.229 2.229 0 1 0-2.229-2.229 2.229 2.229 0 0 0 2.229 2.229Zm0 11.145a2.229 2.229 0 1 0-2.229-2.229 2.229 2.229 0 0 0 2.229 2.226Z"/><path d="M10 22a12 12 0 1 0 12-12 12 12 0 0 0-12 12Zm0 0v12"/></g></svg>