<svg xmlns="http://www.w3.org/2000/svg" width="44" height="44"><defs><clipPath id="a"><path d="M0 0h44v44H0z"/></clipPath></defs><g fill="none" stroke="currentColor" stroke-linecap="round" stroke-linejoin="round" stroke-width="1.5" clip-path="url(#a)"><path d="M12.4 24.4v-.6c0-5.964 4.3-10.8 9.6-10.8s9.6 4.836 9.6 10.8v.6"/><path d="M10 29.127v-2.252a2.4 2.4 0 0 1 1.818-2.328l.582-.146 1.5-.377a.72.72 0 0 1 .9.7v6.557a.72.72 0 0 1-.9.7l-2.088-.522A2.4 2.4 0 0 1 10 29.127Zm24 0v-2.252a2.4 2.4 0 0 0-1.818-2.328l-.582-.146-1.506-.377a.72.72 0 0 0-.894.7v6.557a.72.72 0 0 0 .894.7l2.088-.522A2.4 2.4 0 0 0 34 29.127Z"/></g></svg>