<svg xmlns="http://www.w3.org/2000/svg" width="44" height="44"><defs><clipPath id="a"><path d="M0 0h44v44H0z"/></clipPath></defs><g fill="none" stroke="currentColor" stroke-linecap="round" stroke-linejoin="round" stroke-miterlimit="10" stroke-width="1.5" clip-path="url(#a)"><path d="m10 32.586 1.037-1.468a7.8 7.8 0 0 0 1.388-4.589 6.057 6.057 0 1 1 6.057 6.057Z"/><path d="M23.571 23.259a6.085 6.085 0 0 0-1.823-1.824l-.852-.55.62-.8q.611-.793 1.2-1.492l.54-.643.7.471a9.791 9.791 0 0 1 2.633 2.629l.471.7-.644.54q-.7.586-1.489 1.2l-.8.622Z"/><path d="M26.467 20.88a9.813 9.813 0 0 0-2.341-2.341l-.865-.612.718-.78c3.833-4.166 6.815-5.489 8.642-5.863L34 11l-.279 1.381c-.365 1.82-1.681 4.8-5.862 8.646l-.78.717Z"/></g></svg>