<svg xmlns="http://www.w3.org/2000/svg" width="44" height="44"><defs><clipPath id="a"><path d="M0 0h44v44H0z"/></clipPath></defs><g fill="none" stroke="currentColor" stroke-linecap="round" stroke-linejoin="round" stroke-width="1.5" clip-path="url(#a)"><path d="M32.861 18.721a2.532 2.532 0 0 1-1.333 1.454 9.334 9.334 0 0 0-5.521 8.494 9.645 9.645 0 0 0 .187 1.867 2.88 2.88 0 0 1-.413 2.2 2.387 2.387 0 0 1-1.614 1.064A12.009 12.009 0 1 1 21.313 10h.68a12 12 0 0 1 10.748 6.667 2.667 2.667 0 0 1 .12 2.027v.027ZM16.18 27.349l.013-.015m-2.68-5.319.013-.015m2.654-5.319.013-.015m5.32-2.652.014-.014m5.321 2.682.013-.015"/></g></svg>