<svg xmlns="http://www.w3.org/2000/svg" width="44" height="44"><defs><clipPath id="a"><path d="M0 0h44v44H0z"/></clipPath></defs><g clip-path="url(#a)"><g transform="translate(3.296 3.952)" fill="none" stroke="currentColor" stroke-linecap="round" stroke-linejoin="round" stroke-width="1.5"><path d="M8.822 28.005V14.753c0-.261.295-.474.659-.474h18.447c.364 0 .659.212.659.474v13.252c0 .262-.295.474-.659.474H9.481c-.364 0-.659-.212-.659-.474Z"/><path d="M31.057 14.525c0 1.68 1.647 1.68 1.647 3.36s-1.647 1.68-1.647 3.359 1.647 1.678 1.647 3.356-1.647 1.676-1.647 3.354a3.026 3.026 0 0 1-3.129 2.981l-4.673-.428c-1.559.27-2.951 1.541-4.551 1.541s-2.992-1.271-4.551-1.541l-4.673.428a3.061 3.061 0 0 1-3.129-2.982c0-1.68-1.647-1.68-1.647-3.36s1.647-1.68 1.647-3.36-1.647-1.678-1.647-3.355 1.647-1.676 1.647-3.354a3.061 3.061 0 0 1 3.129-2.982l4.673.428c1.559-.27 2.956-1.541 4.551-1.541s2.992 1.271 4.551 1.541l4.673-.428a3.026 3.026 0 0 1 3.129 2.983Z"/><path d="m8.822 24.466 7.686-1.494 12.078 2.491"/><ellipse cx="1.664" cy="1.647" rx="1.664" ry="1.647" transform="rotate(-90 21.381 -.734)"/><path d="m10.509 11.408 8.439-7.36 8.439 7.36"/></g></g></svg>