<svg xmlns="http://www.w3.org/2000/svg" width="44" height="44"><defs><clipPath id="a"><path d="M0 0h44v44H0z"/></clipPath></defs><g fill="none" stroke="currentColor" stroke-linecap="round" stroke-width="1.5" clip-path="url(#a)"><path d="M13 32.023V12.69a2.62 2.62 0 0 1 2.571-2.667h14.658a.786.786 0 0 1 .771.8v23.2M18.143 15.356h7.714M14.929 26.023H31m-16.071 4H31m-16.071 4H31"/><path d="M15 30.031a1.865 1.865 0 0 1-2-2 1.865 1.865 0 0 1 2-2m0 7.984a1.865 1.865 0 0 1-2-2 1.865 1.865 0 0 1 2-2" stroke-linejoin="round"/></g></svg>