<svg xmlns="http://www.w3.org/2000/svg" width="44" height="44"><defs><clipPath id="a"><path d="M0 0h44v44H0z"/></clipPath></defs><g fill="none" stroke="currentColor" stroke-linecap="round" stroke-width="1.5" clip-path="url(#a)"><path d="m21.09 23.87-1.575-1.575L32.747 9.063l2.205 2.205-1.89 1.89-1.89.63M14.63 26.787l2.52 2.52" stroke-linejoin="round"/><path d="M25.096 15.679c-1.49-1.512-3.34-1.148-4.844.378a4.3 4.3 0 0 0-.67.884 5.881 5.881 0 0 1-4.383 3.143 5.648 5.648 0 0 0-3.515 1.643c-2.47 2.506-2.137 6.907.744 9.83s7.22 3.26 9.687.756a5.8 5.8 0 0 0 1.621-3.569c.182-1.913-.309-2.924 2.852-3.993 2.235-.756 1.49-3.024-.745-3.78" stroke-miterlimit="10"/></g></svg>