<svg xmlns="http://www.w3.org/2000/svg" width="44" height="44"><defs><clipPath id="a"><path d="M0 0h44v44H0z"/></clipPath></defs><g fill="none" stroke="currentColor" stroke-linecap="round" stroke-linejoin="round" stroke-width="1.5" clip-path="url(#a)"><path d="M10 29.778V18.667a2.316 2.316 0 0 1 2.4-2.223h.6a2.469 2.469 0 0 0 1.92-.889l2.664-3.288A.741.741 0 0 1 18.16 12h7.68a.741.741 0 0 1 .576.267l2.664 3.289a2.469 2.469 0 0 0 1.92.888h.6a2.316 2.316 0 0 1 2.4 2.223v11.111A2.316 2.316 0 0 1 31.6 32H12.4a2.316 2.316 0 0 1-2.4-2.222Z"/><path d="M22 27.2a4 4 0 1 0-4-4 4 4 0 0 0 4 4Z"/></g></svg>