<svg xmlns="http://www.w3.org/2000/svg" width="44" height="44"><defs><clipPath id="a"><path d="M0 0h44v44H0z"/></clipPath></defs><g clip-path="url(#a)"><path d="m15.833 16.712.014-.012m13.32.013.013-.013m-13.347 4.812.014-.012m13.32.013.013-.013m-13.347 4.812.013-.013m13.32.013.013-.013M15.833 9.5H11.3a.763.763 0 0 0-.8.72v22.56a.763.763 0 0 0 .8.72h4.533m0-24v2.4m0-2.4h13.334m0 0H33.7a.763.763 0 0 1 .8.72v22.56a.763.763 0 0 1-.8.72h-4.533m0-24v2.4m0 21.6v-2.4m0 2.4H15.833m0 0v-2.4" fill="none" stroke="currentColor" stroke-linecap="round" stroke-linejoin="round" stroke-width="1.5"/></g></svg>