<svg xmlns="http://www.w3.org/2000/svg" width="44" height="44"><defs><clipPath id="a"><path d="M0 0h44v44H0z"/></clipPath></defs><g fill="none" stroke="currentColor" stroke-linecap="round" stroke-width="1.5" clip-path="url(#a)"><path d="M13.169 34h17.9a1.834 1.834 0 0 0 1.935-1.714V11.714A1.834 1.834 0 0 0 31.069 10h-17.9" stroke-linejoin="round"/><path d="M11 14.215h4.337v-2.107A2.138 2.138 0 0 0 13.169 10 2.138 2.138 0 0 0 11 12.108ZM15.337 29.785H11v2.108a2.138 2.138 0 0 0 2.169 2.108 2.138 2.138 0 0 0 2.169-2.108ZM15.337 29.786v-15.57" stroke-linejoin="round"/><path d="M21.309 17.321h8.247M21.309 25.336h8.247M18.961 21.328h8.247"/></g></svg>