<svg xmlns="http://www.w3.org/2000/svg" width="44" height="44"><defs><clipPath id="a"><path d="M0 0h44v44H0z"/></clipPath></defs><g fill="none" stroke="currentColor" stroke-width="1.5" clip-path="url(#a)"><path d="M12.4 29.4h2.4m14.4 0h2.4" stroke-linecap="round" stroke-linejoin="round"/><path d="M10 26.28V15.72a.72.72 0 0 1 .72-.72h22.56a.72.72 0 0 1 .72.72v10.56a.72.72 0 0 1-.72.72H10.72a.72.72 0 0 1-.72-.72Z"/><path d="m13.6 18.612.012-.012m3.588.013.012-.013m3.588.013.012-.013M13.6 23.412l.012-.013m3.588.013.012-.013m3.588.013.012-.013m7.188 0A2.4 2.4 0 1 0 25.6 21a2.4 2.4 0 0 0 2.4 2.4Z" stroke-linecap="round" stroke-linejoin="round"/></g></svg>