<svg xmlns="http://www.w3.org/2000/svg" width="44" height="44"><defs><clipPath id="a"><path d="M0 0h44v44H0z"/></clipPath></defs><g clip-path="url(#a)"><g transform="translate(10 10)" fill="none" stroke="currentColor" stroke-linecap="round" stroke-linejoin="round" stroke-width="1.5"><rect width="19.636" height="9.818" rx="2" transform="translate(2.182 10.909)"/><path d="M4.364 20.727h3.273V24H4.364zM16.364 20.727h3.273V24h-3.273zM2.182 13.091V5.455a2.181 2.181 0 0 1 2.182-2.182h15.268a2.181 2.181 0 0 1 2.182 2.182v9.818"/><path d="M2.182 5.45h0A5.455 5.455 0 0 1 7.632 0h8.727a5.455 5.455 0 0 1 5.459 5.45M24 8.727V12M0 8.727V12"/></g><g transform="translate(15.833 24.346)" fill="currentColor"><circle cx="1.54" cy="1.54" r="1.54"/><circle cx="1.54" cy="1.54" r="1.54" transform="translate(9.384)"/></g></g></svg>