<svg xmlns="http://www.w3.org/2000/svg" width="44" height="44"><defs><clipPath id="a"><path d="M0 0h44v44H0z"/></clipPath></defs><g clip-path="url(#a)" fill="none" stroke="currentColor" stroke-linecap="round" stroke-linejoin="round" stroke-width="1.5"><path d="m7.75 16.751 5.45-1.525 6.54 1.858"/><circle cx="1.5" cy="1.5" r="1.5" transform="translate(19.222 11.429)"/><path d="M24.27 15.67V9.15c0-.223-.251-.4-.551-.4H8.3c-.3 0-.55.182-.55.4v11.072c0 .223.251.4.551.4h10.851"/><path d="m26.723 36.249.009-7.789a7.461 7.461 0 0 1-2.571-1.389c-2.053-1.718-3.088-4.477-3.088-8.185a1.604 1.604 0 0 1 3.208 0c0 2.681.647 4.582 1.907 5.658a7.249 7.249 0 0 0 4.175 1.017l4.454-.08a2.4 2.4 0 0 1 2.433 2.367v4.927"/><circle cx="3.073" cy="3.073" r="3.073" transform="translate(27.793 16.867)"/><path d="m33.565 36.249.009-7.434"/></g></svg>