<svg xmlns="http://www.w3.org/2000/svg" width="44" height="44"><defs><clipPath id="a"><path d="M0 0h44v44H0z"/></clipPath></defs><g clip-path="url(#a)"><g transform="translate(13 8)" fill="none" stroke="currentColor" stroke-linecap="round" stroke-linejoin="round" stroke-width="1.5"><path d="m5.98 28 .01-8.238a7.9 7.9 0 0 1-2.719-1.469C1.095 16.475 0 13.562 0 9.635a1.7 1.7 0 1 1 3.392 0c0 2.836.684 4.846 2.017 5.984a7.664 7.664 0 0 0 4.416 1.076l4.71-.084a2.544 2.544 0 0 1 2.573 2.559v5.156"/><circle cx="3.25" cy="3.25" r="3.25" transform="translate(7.108 7.5)"/><path d="m13.212 28 .01-7.863M8.135 3.96H1.802L2.223.001h6.331ZM1.38 7.919 2.224 0"/></g></g></svg>