<svg xmlns="http://www.w3.org/2000/svg" width="44" height="44"><defs><clipPath id="a"><path d="M0 0h44v44H0z"/></clipPath></defs><g clip-path="url(#a)"><path d="m33.237 10.5-1.263 1.263M10.5 10.5l1.263 1.263m21.474 16.421-1.263-1.263M10.5 28.184l1.263-1.263m6.316 3.789h7.579m-6.316 3.79h5.053m-2.527-22.737c-5.053 0-7.64 2.463-7.579 6.316a5.859 5.859 0 0 0 1.895 4.421 4.917 4.917 0 0 1 1.895 4.421h7.579a4.917 4.917 0 0 1 1.895-4.421h0a5.859 5.859 0 0 0 1.895-4.421c.06-3.853-2.527-6.316-7.58-6.316Z" fill="none" stroke="currentColor" stroke-linecap="round" stroke-linejoin="round" stroke-width="1.5"/></g></svg>